<svg width="25" height="25" viewBox="0 0 25 25" fill="none" xmlns="http://www.w3.org/2000/svg">
<path d="M24.285 3.41773C23.9172 3.04932 23.3205 3.04869 22.9527 3.41617L11.6494 14.6897L7.57115 10.2604C7.21876 9.87784 6.62296 9.85303 6.23981 10.2054C5.85695 10.5578 5.83243 11.1539 6.18483 11.5367L10.9273 16.6872C11.101 16.8759 11.3441 16.9856 11.6004 16.9909C11.6072 16.9912 11.6139 16.9912 11.6205 16.9912C11.8695 16.9912 12.1091 16.8922 12.2857 16.7164L24.2832 4.7503C24.6519 4.38287 24.6525 3.78614 24.285 3.41773Z" fill="#F49D9C"/>
<path d="M24.0578 11.5578C23.5374 11.5578 23.1156 11.9795 23.1156 12.5C23.1156 18.3537 18.3537 23.1156 12.5 23.1156C6.64668 23.1156 1.88442 18.3537 1.88442 12.5C1.88442 6.64668 6.64668 1.88442 12.5 1.88442C13.0204 1.88442 13.4422 1.46265 13.4422 0.942236C13.4422 0.421777 13.0204 0 12.5 0C5.60742 0 0 5.60742 0 12.5C0 19.3923 5.60742 25 12.5 25C19.3923 25 25 19.3923 25 12.5C25 11.9796 24.5782 11.5578 24.0578 11.5578Z" fill="#F49D9C"/>
</svg>
