<svg width="16" height="15" viewBox="0 0 16 15" fill="none" xmlns="http://www.w3.org/2000/svg">
<path d="M10.5334 1.71669C8.24515 -0.571579 4.52082 -0.571579 2.23255 1.71669C-0.0552197 4.00546 -0.0552197 7.72929 2.23255 10.0181C4.27032 12.0553 7.44404 12.2736 9.73082 10.6828C9.77893 10.9104 9.88906 11.1277 10.0661 11.3048L13.3986 14.6373C13.8842 15.1219 14.669 15.1219 15.1521 14.6373C15.6373 14.1521 15.6373 13.3674 15.1521 12.8837L11.8197 9.55028C11.6436 9.37468 11.4258 9.26406 11.1981 9.21595C12.7899 6.92867 12.5717 3.75545 10.5334 1.71669ZM9.4813 8.96594C7.77291 10.6743 4.99257 10.6743 3.28467 8.96594C1.57727 7.25755 1.57727 4.47769 3.28467 2.7693C4.99257 1.06141 7.77291 1.06141 9.4813 2.7693C11.1897 4.47769 11.1897 7.25755 9.4813 8.96594Z" fill="#F4A435"/>
</svg>
