<svg width="28" height="28" viewBox="0 0 28 28" fill="none" xmlns="http://www.w3.org/2000/svg">
<g clip-path="url(#clip0_2:239)">
<path d="M20.4692 0.333496H8.08649C4.05643 0.333496 0.777832 3.61209 0.777832 7.64215V20.025C0.777832 24.0549 4.05643 27.3335 8.08649 27.3335H20.4694C24.4992 27.3335 27.7778 24.0549 27.7778 20.025V7.64215C27.7778 3.61209 24.4992 0.333496 20.4692 0.333496V0.333496ZM14.2778 21.2161C10.207 21.2161 6.89523 17.9043 6.89523 13.8335C6.89523 9.76265 10.207 6.45089 14.2778 6.45089C18.3487 6.45089 21.6604 9.76265 21.6604 13.8335C21.6604 17.9043 18.3487 21.2161 14.2778 21.2161ZM21.837 8.19195C20.634 8.19195 19.6555 7.21348 19.6555 6.01048C19.6555 4.80747 20.634 3.8288 21.837 3.8288C23.04 3.8288 24.0187 4.80747 24.0187 6.01048C24.0187 7.21348 23.04 8.19195 21.837 8.19195Z" fill="#F9A000"/>
<path d="M14.2776 8.03369C11.0798 8.03369 8.47787 10.6354 8.47787 13.8334C8.47787 17.0313 11.0798 19.6332 14.2776 19.6332C17.4757 19.6332 20.0774 17.0313 20.0774 13.8334C20.0774 10.6354 17.4757 8.03369 14.2776 8.03369Z" fill="#F9A000"/>
<path d="M21.8369 5.41211C21.5069 5.41211 21.2383 5.68073 21.2383 6.01073C21.2383 6.34073 21.5069 6.60934 21.8369 6.60934C22.1671 6.60934 22.4357 6.34094 22.4357 6.01073C22.4357 5.68052 22.1671 5.41211 21.8369 5.41211Z" fill="#F9A000"/>
</g>
<defs>
<clipPath id="clip0_2:239">
<rect width="27" height="27" fill="white" transform="translate(0.777832 0.333496)"/>
</clipPath>
</defs>
</svg>
