<svg width="37" height="38" viewBox="0 0 37 38" fill="none" xmlns="http://www.w3.org/2000/svg">
<path d="M36.8039 27.8983C36.7591 27.8017 36.7173 27.7217 36.6785 27.6575C36.0365 26.5013 34.8098 25.0822 32.999 23.3997L32.9607 23.3612L32.9416 23.3423L32.9222 23.3229H32.9028C32.0809 22.5395 31.5605 22.0127 31.3426 21.743C30.9438 21.2293 30.8545 20.7093 31.0724 20.1824C31.2264 19.7843 31.8048 18.9435 32.8062 17.659C33.333 16.9783 33.7502 16.4327 34.0583 16.0216C36.2803 13.0676 37.2436 11.18 36.948 10.3579L36.8333 10.1658C36.7562 10.0502 36.5571 9.94437 36.2364 9.84788C35.915 9.75159 35.5041 9.73567 35.0031 9.79984L29.4551 9.83816C29.3652 9.80631 29.2369 9.80928 29.0697 9.84788C28.9027 9.88647 28.8192 9.90584 28.8192 9.90584L28.7226 9.95408L28.646 10.012C28.5817 10.0504 28.5111 10.1178 28.434 10.2141C28.3572 10.3101 28.2931 10.4228 28.2418 10.5512C27.6378 12.1052 26.951 13.5501 26.1802 14.8856C25.705 15.682 25.2686 16.3722 24.87 16.9566C24.472 17.5408 24.1381 17.9712 23.8686 18.2471C23.5987 18.5233 23.3551 18.7445 23.1364 18.9117C22.9179 19.0789 22.7512 19.1495 22.6358 19.1237C22.52 19.0978 22.4111 19.0722 22.3079 19.0466C22.1282 18.9309 21.9837 18.7736 21.8747 18.5746C21.7653 18.3755 21.6916 18.125 21.6531 17.8232C21.6147 17.5212 21.5921 17.2614 21.5856 17.043C21.5796 16.8248 21.5824 16.5163 21.5954 16.1182C21.6087 15.7199 21.6147 15.4504 21.6147 15.3091C21.6147 14.821 21.6243 14.2913 21.6434 13.7197C21.6628 13.1482 21.6785 12.6954 21.6917 12.3618C21.7048 12.0279 21.7108 11.6746 21.7108 11.3021C21.7108 10.9297 21.6882 10.6376 21.6434 10.4256C21.5991 10.2139 21.5311 10.0083 21.4416 9.80908C21.3515 9.61003 21.2197 9.45606 21.0467 9.34675C20.8733 9.23757 20.6578 9.15094 20.4014 9.08657C19.7206 8.93252 18.8538 8.84919 17.8004 8.83624C15.4118 8.8106 13.8769 8.96484 13.1963 9.29877C12.9266 9.43986 12.6825 9.63263 12.4643 9.87649C12.2331 10.1591 12.2008 10.3134 12.3677 10.3388C13.1384 10.4542 13.684 10.7304 14.0051 11.167L14.1209 11.3984C14.2109 11.5653 14.3007 11.8608 14.3907 12.2846C14.4805 12.7083 14.5385 13.1771 14.564 13.6905C14.6281 14.6282 14.6281 15.4309 14.564 16.0986C14.4997 16.7666 14.4389 17.2866 14.381 17.6591C14.323 18.0316 14.2364 18.3334 14.1209 18.5645C14.0051 18.7956 13.9282 18.9369 13.8896 18.9882C13.851 19.0395 13.8189 19.0718 13.7934 19.0845C13.6265 19.1485 13.4529 19.181 13.2732 19.181C13.0932 19.181 12.875 19.091 12.6182 18.9111C12.3615 18.7313 12.095 18.4842 11.8188 18.1695C11.5427 17.8547 11.2312 17.4148 10.8843 16.8498C10.5377 16.2848 10.1781 15.617 9.80562 14.8464L9.49746 14.2876C9.30482 13.9281 9.04167 13.4046 8.70774 12.7177C8.37361 12.0305 8.07828 11.3657 7.82154 10.7236C7.71891 10.4539 7.56473 10.2485 7.35927 10.1072L7.26285 10.0493C7.19875 9.99801 7.09585 9.94356 6.9547 9.88553C6.81334 9.82757 6.66584 9.786 6.51159 9.76043L1.23316 9.79876C0.693769 9.79876 0.32779 9.92095 0.135083 10.165L0.0579603 10.2805C0.0194326 10.3448 0 10.4475 0 10.5888C0 10.7301 0.0385277 10.9035 0.115651 11.1088C0.886206 12.9198 1.72417 14.6664 2.62954 16.3488C3.5349 18.0312 4.32165 19.3864 4.98931 20.4133C5.6571 21.4408 6.33778 22.4106 7.03135 23.3222C7.72492 24.2341 8.18401 24.8185 8.40863 25.0752C8.63352 25.3325 8.81017 25.5248 8.93857 25.6532L9.42027 26.1154C9.72849 26.4237 10.1811 26.7929 10.7783 27.2231C11.3757 27.6535 12.037 28.0772 12.7626 28.495C13.4884 28.912 14.3327 29.2524 15.296 29.5156C16.2592 29.7791 17.1967 29.8848 18.1086 29.8338H20.324C20.7733 29.795 21.1137 29.6537 21.3451 29.4099L21.4218 29.3133C21.4733 29.2367 21.5216 29.1176 21.5661 28.9573C21.6112 28.7968 21.6336 28.6199 21.6336 28.4276C21.6204 27.8754 21.6624 27.3778 21.7585 26.9348C21.8545 26.4919 21.964 26.1579 22.0864 25.933C22.2087 25.7084 22.3468 25.5188 22.5004 25.365C22.6544 25.211 22.7641 25.1177 22.8285 25.0856C22.8924 25.0533 22.9435 25.0313 22.982 25.0182C23.2903 24.9155 23.653 25.0149 24.0708 25.317C24.4883 25.6188 24.8798 25.9915 25.2461 26.4344C25.6121 26.8777 26.0519 27.375 26.5655 27.9272C27.0795 28.4795 27.5289 28.8901 27.914 29.1602L28.2991 29.3914C28.5564 29.5456 28.8903 29.6869 29.3013 29.8153C29.7116 29.9436 30.0711 29.9758 30.3798 29.9116L35.3113 29.8347C35.7991 29.8347 36.1786 29.7539 36.4479 29.5937C36.7176 29.4331 36.8779 29.2563 36.9296 29.0639C36.9811 28.8713 36.9839 28.6529 36.9393 28.4086C36.8937 28.165 36.8487 27.9946 36.8039 27.8983Z" fill="#F9A000"/>
</svg>
